REM DIRINDEX 1\2\6,1\2\7,1\2\8,1\3\9,1\3\10,1\3\11,1\4\12,1\4\13,1\4\14,1\5\15,1\5\16,1\5\17,1\5\18
REM DIRNAME folder01,folder02,folder03,folder04,folder05,folder06,folder07,folder08,folder09,folder10,folder11,folder12,folder13,folder14,folder15,folder16,folder17,folder18
TITLE ""
FILE "2Q_j_1362-1375.mp3" MP3
  TRACK 01 AUDIO
    TITLE "6:cjc019_0548"
    INDEX 01 00:00:00
  TRACK 02 AUDIO
    TITLE "0:"
    INDEX 01 00:01:36
  TRACK 03 AUDIO
    TITLE "7:cjc019_0549"
    INDEX 01 00:02:22
  TRACK 04 AUDIO
    TITLE "0:"
    INDEX 01 00:04:60
  TRACK 05 AUDIO
    TITLE "8:cjc019_0550"
    INDEX 01 00:05:40
  TRACK 06 AUDIO
    TITLE "0:"
    INDEX 01 00:09:69
  TRACK 07 AUDIO
    TITLE "6:cjc019_0551"
    INDEX 01 00:10:49
  TRACK 08 AUDIO
    TITLE "0:"
    INDEX 01 00:11:60
  TRACK 09 AUDIO
    TITLE "7:cjc019_0552"
    INDEX 01 00:12:44
  TRACK 10 AUDIO
    TITLE "0:"
    INDEX 01 00:14:02
  TRACK 11 AUDIO
    TITLE "8:cjc019_0553"
    INDEX 01 00:14:60
  TRACK 12 AUDIO
    TITLE "0:"
    INDEX 01 00:19:05
  TRACK 13 AUDIO
    TITLE "6:cjc019_0554"
    INDEX 01 00:19:63
  TRACK 14 AUDIO
    TITLE "0:"
    INDEX 01 00:21:11
  TRACK 15 AUDIO
    TITLE "7:cjc019_0555"
    INDEX 01 00:21:68
  TRACK 16 AUDIO
    TITLE "0:"
    INDEX 01 00:24:27
  TRACK 17 AUDIO
    TITLE "8:cjc019_0556"
    INDEX 01 00:25:03
  TRACK 18 AUDIO
    TITLE "0:"
    INDEX 01 00:28:39
  TRACK 19 AUDIO
    TITLE "6:cjc019_0557"
    INDEX 01 00:29:19
  TRACK 20 AUDIO
    TITLE "0:"
    INDEX 01 00:30:42
  TRACK 21 AUDIO
    TITLE "7:cjc019_0558"
    INDEX 01 00:31:35
  TRACK 22 AUDIO
    TITLE "0:"
    INDEX 01 00:33:60
  TRACK 23 AUDIO
    TITLE "8:cjc019_0559"
    INDEX 01 00:34:40
  TRACK 24 AUDIO
    TITLE "0:"
    INDEX 01 00:39:11
  TRACK 25 AUDIO
    TITLE "6:cjc019_0560"
    INDEX 01 00:39:68
  TRACK 26 AUDIO
    TITLE "0:"
    INDEX 01 00:41:26
  TRACK 27 AUDIO
    TITLE "7:cjc019_0561"
    INDEX 01 00:42:08
  TRACK 28 AUDIO
    TITLE "0:"
    INDEX 01 00:43:09
  TRACK 29 AUDIO
    TITLE "8:cjc019_0562"
    INDEX 01 00:43:68
  TRACK 30 AUDIO
    TITLE "0:"
    INDEX 01 00:47:30
  TRACK 31 AUDIO
    TITLE "6:cjc019_0563"
    INDEX 01 00:48:10
  TRACK 32 AUDIO
    TITLE "0:"
    INDEX 01 00:49:29
  TRACK 33 AUDIO
    TITLE "7:cjc019_0564"
    INDEX 01 00:50:07
  TRACK 34 AUDIO
    TITLE "0:"
    INDEX 01 00:52:59
  TRACK 35 AUDIO
    TITLE "8:cjc019_0565"
    INDEX 01 00:53:39
  TRACK 36 AUDIO
    TITLE "0:"
    INDEX 01 00:56:33
  TRACK 37 AUDIO
    TITLE "6:cjc019_0566"
    INDEX 01 00:57:13
  TRACK 38 AUDIO
    TITLE "0:"
    INDEX 01 00:58:30
  TRACK 39 AUDIO
    TITLE "7:cjc019_0567"
    INDEX 01 00:59:20
  TRACK 40 AUDIO
    TITLE "0:"
    INDEX 01 01:01:54
  TRACK 41 AUDIO
    TITLE "8:cjc019_0568"
    INDEX 01 01:02:34
  TRACK 42 AUDIO
    TITLE "0:"
    INDEX 01 01:06:00
  TRACK 43 AUDIO
    TITLE "6:cjc019_0569"
    INDEX 01 01:06:59
  TRACK 44 AUDIO
    TITLE "0:"
    INDEX 01 01:08:27
  TRACK 45 AUDIO
    TITLE "7:cjc019_0570"
    INDEX 01 01:09:09
  TRACK 46 AUDIO
    TITLE "0:"
    INDEX 01 01:10:71
  TRACK 47 AUDIO
    TITLE "8:cjc019_0571"
    INDEX 01 01:11:54
  TRACK 48 AUDIO
    TITLE "0:"
    INDEX 01 01:15:68
  TRACK 49 AUDIO
    TITLE "6:cjc019_0572"
    INDEX 01 01:16:54
  TRACK 50 AUDIO
    TITLE "0:"
    INDEX 01 01:18:07
  TRACK 51 AUDIO
    TITLE "7:cjc019_0573"
    INDEX 01 01:18:56
  TRACK 52 AUDIO
    TITLE "0:"
    INDEX 01 01:21:63
  TRACK 53 AUDIO
    TITLE "8:cjc019_0574"
    INDEX 01 01:22:42
  TRACK 54 AUDIO
    TITLE "0:"
    INDEX 01 01:25:62
  TRACK 55 AUDIO
    TITLE "6:cjc019_0575"
    INDEX 01 01:26:50
  TRACK 56 AUDIO
    TITLE "0:"
    INDEX 01 01:28:29
  TRACK 57 AUDIO
    TITLE "7:cjc019_0576"
    INDEX 01 01:29:13
  TRACK 58 AUDIO
    TITLE "0:"
    INDEX 01 01:31:06
  TRACK 59 AUDIO
    TITLE "8:cjc019_0577"
    INDEX 01 01:31:63
  TRACK 60 AUDIO
    TITLE "0:"
    INDEX 01 01:36:66
  TRACK 61 AUDIO
    TITLE "6:cjc019_0578"
    INDEX 01 01:37:46
  TRACK 62 AUDIO
    TITLE "0:"
    INDEX 01 01:38:65
  TRACK 63 AUDIO
    TITLE "7:cjc019_0579"
    INDEX 01 01:39:51
  TRACK 64 AUDIO
    TITLE "0:"
    INDEX 01 01:41:71
  TRACK 65 AUDIO
    TITLE "8:cjc019_0580"
    INDEX 01 01:42:49
  TRACK 66 AUDIO
    TITLE "0:"
    INDEX 01 01:46:41
  TRACK 67 AUDIO
    TITLE "6:cjc019_0581"
    INDEX 01 01:47:27
  TRACK 68 AUDIO
    TITLE "0:"
    INDEX 01 01:49:00
  TRACK 69 AUDIO
    TITLE "7:cjc019_0582"
    INDEX 01 01:49:57
  TRACK 70 AUDIO
    TITLE "0:"
    INDEX 01 01:52:18
  TRACK 71 AUDIO
    TITLE "8:cjc019_0583"
    INDEX 01 01:52:73
  TRACK 72 AUDIO
    TITLE "0:"
    INDEX 01 01:56:43
  TRACK 73 AUDIO
    TITLE "6:cjc019_0584"
    INDEX 01 01:57:25
  TRACK 74 AUDIO
    TITLE "0:"
    INDEX 01 01:58:42
  TRACK 75 AUDIO
    TITLE "7:cjc019_0585"
    INDEX 01 01:59:28
  TRACK 76 AUDIO
    TITLE "0:"
    INDEX 01 02:01:54
  TRACK 77 AUDIO
    TITLE "8:cjc019_0586"
    INDEX 01 02:02:34
  TRACK 78 AUDIO
    TITLE "0:"
    INDEX 01 02:05:36
  TRACK 79 AUDIO
    TITLE "6:cjc019_0587"
    INDEX 01 02:06:16
  TRACK 80 AUDIO
    TITLE "0:"
    INDEX 01 02:07:35
  TRACK 81 AUDIO
    TITLE "7:cjc019_0588"
    INDEX 01 02:08:15
  TRACK 82 AUDIO
    TITLE "0:"
    INDEX 01 02:09:68
  TRACK 83 AUDIO
    TITLE "8:cjc019_0589"
    INDEX 01 02:10:43
  TRACK 84 AUDIO
    TITLE "0:"
    INDEX 01 02:14:18
